<svg width="418.38" height="459.69000000000005" xmlns="http://www.w3.org/2000/svg">
 <title>5Asset 1</title>

 <g>
  <title>background</title>
  <rect x="-1" y="-1" width="420.38" height="461.69" id="canvas_background" fill="none"/>
 </g>
 <g>
  <title>Layer 1</title>
  <path class="cls-1" d="m394.9,90.45q-23.49,-45.29 -69.78,-67.87t-114.97,-22.58q-69.78,0 -116.15,22.45t-69.83,67.62q-23.34,45.17 -23.9,113.28q-0.27,17.16 -0.27,34.31l0,34.34q0,62.8 23.21,104.43t69.92,62.44q46.7,20.82 117,20.82l81.87,0l0,-45.17l-81.85,0q-53.57,0 -89,-15.76t-53,-47.44q-17.6,-31.65 -17.6,-79.32l0,-34.59q0,-17.15 0.27,-34.06q0.55,-53.47 18.27,-88.81a116,116 0 0 1 52.88,-53q35.16,-17.65 88.18,-17.66q51.65,0 86.81,17.79a117.24,117.24 0 0 1 53,53.23q17.85,35.45 17.86,88.43l0,83.76q0,18.93 -5.91,27.5t-18.82,8.58q-12.36,0 -18.4,-9.08t-6,-27.75l0,-75.42q0,-57 -27.19,-85.15t-82.17,-28.13q-54.95,0 -82.28,28.13t-27.33,84.9l0,43.39q0,56.52 24,84.78t72.38,28.25q36,0 56.46,-15a60.61,60.61 0 0 0 17.61,-20.41a58.1,58.1 0 0 0 11.23,15.74q19.92,19.68 59.75,19.68q37.63,0 57.41,-20.69t19.78,-64.33l0,-78.73q0.04,-67.6 -23.44,-112.9zm-143.54,214.2q-14,16 -42.58,16q-28,0 -41.89,-16t-13.89,-48.57l0,-47.93q0,-64.1 55.77,-64.09q28.56,0 42.58,15.9t14,47.93l0,48.19q0.02,32.55 -13.99,48.57z" id="svg_1" fill="#ff8933"/>
 </g>
</svg>