<svg width="281.3" height="393.77" xmlns="http://www.w3.org/2000/svg">

 <title>5Asset 3</title>
 <g>
  <title>background</title>
  <rect fill="none" id="canvas_background" height="402" width="582" y="-1" x="-1"/>
 </g>
 <g>
  <title>Layer 1</title>
  <path fill="#288baf" id="svg_1" d="m280.13,45c-6.53,-30.35 -34.13,-49.23 -65,-44.08a55.7,55.7 0 0 0 -45.77,63.21c2.49,17.1 11.49,30.24 26.07,39.51a2.7,2.7 0 0 1 1.48,2.6q-0.09,16.37 0,32.74a3.66,3.66 0 0 1 -1.2,2.86q-26.83,26.76 -53.59,53.61c-1.28,1.29 -1.89,1.07 -3,-0.07q-26.67,-26.77 -53.45,-53.45a4.13,4.13 0 0 1 -1.28,-3.27c0,-10.47 0.09,-21 0,-31.42a4.35,4.35 0 0 1 2.31,-4.13c19.29,-13.24 28.19,-31.56 25.24,-54.82c-3.34,-25.75 -23.94,-45.16 -49.82,-47.96a56,56 0 0 0 -60.9,44.15c-0.37,1.73 -0.22,3.6 -1.22,5.18l0,12.34c0.33,0.11 0.38,0.38 0.42,0.68c2.34,17.7 11.18,31.26 26.12,40.9a3,3 0 0 1 1.62,3c-0.06,15.3 0,30.61 -0.07,45.92a4.88,4.88 0 0 0 1.54,3.83q40.77,40.65 81.46,81.36a4.37,4.37 0 0 1 1.44,3.43q-0.07,22.74 0,45.48a4,4 0 0 1 -2.14,4a55.94,55.94 0 0 0 45.23,101c23.06,-6.57 37.09,-22.39 40.52,-46.06c3.37,-23.37 -5.86,-41.86 -25.42,-55.09a3.8,3.8 0 0 1 -2,-3.62q0.1,-22.74 0,-45.48a4.88,4.88 0 0 1 1.53,-3.84q40.77,-40.65 81.46,-81.37a4.38,4.38 0 0 0 1.45,-3.42c0,-15.16 0,-30.32 -0.09,-45.48a4.23,4.23 0 0 1 2.32,-4.13c19.4,-12.18 29.49,-35.97 24.74,-58.11zm-224.06,45.09c-18.4,-0.07 -33.72,-15.55 -33.66,-34s15.52,-33.71 34.24,-33.66c18.21,0.05 33.5,15.6 33.44,34s-15.56,33.72 -34.02,33.66zm118.39,247.23a34.18,34.18 0 0 1 -33.66,34c-18.45,0.06 -34,-15.27 -34,-33.66s15.21,-33.95 33.43,-34c18.77,-0.03 34.16,15.13 34.23,33.66zm50.46,-247.23a34.18,34.18 0 0 1 -33.76,-33.92a34.1,34.1 0 0 1 34.13,-33.74c18.26,0 33.57,15.51 33.55,33.89a34.19,34.19 0 0 1 -33.92,33.77z" class="cls-1"/>
 </g>
</svg>