<svg width="394.6" height="401.20000000000005" xmlns="http://www.w3.org/2000/svg">
 <title>5Asset 2</title>

 <g>
  <title>background</title>
  <rect x="-1" y="-1" width="396.6" height="403.2" id="canvas_background" fill="none"/>
 </g>
 <g>
  <title>Layer 1</title>
  <path class="cls-1" d="m315.4,158.5l-56.9,0l-78.3,242.7l46,0l21,-68.8l77.5,0l22.1,68.8l47.8,0l-79.2,-242.7zm-60.9,140.4l18.8,-59.8c4.3,-14.4 8,-31.3 11.6,-45.4l0.7,0c3.6,14 7.6,30.6 12.3,45.4l19.2,59.8l-62.6,0z" id="svg_1" fill="#ff8933"/>
  <path stroke="null" class="cls-1" d="m236,178.1c0,-33 -17.8,-62.7 -58.1,-74.5c0.6,-3.2 1.4,-6.5 2.2,-9.7l-34.2,-9.1a75.79,75.79 0 0 1 -2.2,13.2c-13.1,-0.9 -30,0.9 -41.7,3.8c0,-9.7 0.3,-19.7 0.6,-30c33.4,-1.2 73.4,-4.1 104,-10l-3.1,-35.6c-30.9,7.1 -69,10.9 -99.3,12.4c0.8,-9.4 1.4,-20.6 2.2,-29.1c4.7,-0.6 7,-2.9 7.5,-5.9l-43.6,-3.6c-0.6,12.4 -0.8,27.1 -1.4,39.7c-20.6,0 -43.9,0 -56.7,-0.3l1.7,34.4c11.1,0.3 33.6,-0.3 54.5,-0.9c0,13.5 0,26.5 0.6,39.2c-39.5,17.1 -69,49.2 -69,89.8c0,27.4 16.1,43.9 40.6,43.9c15.6,0 30.9,-5.3 44.8,-13.5a72.57,72.57 0 0 0 3.9,9.7l28.6,-19.4a63.27,63.27 0 0 1 -3.9,-10c21.7,-19.7 40.3,-47.1 52.6,-76.6c30,10.3 33.1,33.3 33.1,43c0,34.2 -32.8,51.8 -82.9,57.7c5.3,7.9 12.2,22.1 14.5,29.7c71.4,-9.4 104.7,-41.2 104.7,-88.3zm-186.8,33c-3.6,0.3 -15.6,0.9 -15.6,-15.9c0,-19.7 15,-37.7 37,-49.2c1.4,20 3.3,38.3 6.4,53.9c-9.8,6.8 -19.2,10.9 -27.8,11.2zm56.7,-36.8c-1.9,-11.8 -2.8,-25.3 -3.6,-40c12.5,-3.5 27,-4.7 30.9,-4.1a159.59,159.59 0 0 1 -27.3,44.1z" id="svg_2" fill="#ff8933"/>
 </g>
</svg>