<svg width="490.7" height="490.7" xmlns="http://www.w3.org/2000/svg">

 <g>
  <title>background</title>
  <rect fill="none" id="canvas_background" height="402" width="582" y="-1" x="-1"/>
 </g>
 <g>
  <title>Layer 1</title>
  <path fill="#288baf" id="svg_3" d="m472.4,0l-454,0c-10.2,0 -18.4,8.2 -18.4,18.4l0,454c0,10.1 8.2,18.4 18.4,18.4l454,0c10.1,0 18.4,-8.2 18.4,-18.4l0,-454c-0.1,-10.2 -8.3,-18.4 -18.4,-18.4zm-342,403.8c0,6.8 -5.5,12.2 -12.2,12.2l-49,0c-6.8,0 -12.2,-5.5 -12.2,-12.2l0,-214.2c0,-6.8 5.5,-12.2 12.2,-12.2l49,0c6.8,0 12.2,5.5 12.2,12.2l0,214.2zm0,-276.3c0,6.8 -5.5,12.2 -12.2,12.2l-49,0c-6.8,0 -12.2,-5.5 -12.2,-12.2l0,-43.5c0,-6.8 5.5,-12.2 12.2,-12.2l49,0c6.8,0 12.2,5.5 12.2,12.2l0,43.5zm303.4,276.3c0,6.8 -5.5,12.2 -12.2,12.2l-49,0c-6.8,0 -12.2,-5.5 -12.2,-12.2l0,-90.4c0,-30 -1.6,-49.4 -4.7,-58.2c-3.1,-8.8 -8.2,-15.6 -15.3,-20.5c-7.1,-4.9 -15.6,-7.3 -25.5,-7.3c-12.7,0 -24.1,3.5 -34.3,10.5c-10.1,7 -17,16.2 -20.8,27.7c-3.7,11.5 -5.6,32.8 -5.6,63.8l0,74.5c0,6.8 -5.5,12.2 -12.2,12.2l-49,0c-6.8,0 -12.2,-5.5 -12.2,-12.2l0,-214.3c0,-6.8 5.5,-12.2 12.2,-12.2l43.8,0c6.8,0 12.2,5.5 12.2,12.2l0,16.3c0,6.8 3.3,7.9 7.9,2.9c22.9,-25.1 50.8,-37.7 83.7,-37.7c16.2,0 31,2.9 44.5,8.8c13.4,5.8 23.6,13.3 30.5,22.4c6.9,9.1 11.7,19.4 14.4,30.9c2.7,11.5 4.1,28 4.1,49.4l-0.3,121.2l0,0z" class="st0"/>
 </g>
</svg>